HIERARCHY
ROOT Hips
{
	OFFSET 0.000000 0.000000 0.000000 
	CHANNELS 6 Xposition Yposition Zposition Zrotation Yrotation Xrotation
	JOINT LeftUpLeg
	{
		OFFSET 1.363060 -1.794630 0.839290 
		CHANNELS 3 Zrotation Yrotation Xrotation
		JOINT LeftLeg
		{
			OFFSET 2.448110 -6.726130 0.000000 
			CHANNELS 3 Zrotation Yrotation Xrotation
			JOINT LeftFoot
			{
				OFFSET 2.562200 -7.039590 0.000000 
				CHANNELS 3 Zrotation Yrotation Xrotation
				JOINT LeftToeBase
				{
					OFFSET 0.157640 -0.433110 2.322550 
					CHANNELS 3 Zrotation Yrotation Xrotation
					End Site
					{
						OFFSET 0.000000 0.000000 0.000000 
					}
				}
			}
		}
	}
	JOINT RightUpLeg
	{
		OFFSET -1.305520 -1.794630 0.839290 
		CHANNELS 3 Zrotation Yrotation Xrotation
		JOINT RightLeg
		{
			OFFSET -2.542530 -6.985550 0.000000 
			CHANNELS 3 Zrotation Yrotation Xrotation
			JOINT RightFoot
			{
				OFFSET -2.568260 -7.056230 0.000000 
				CHANNELS 3 Zrotation Yrotation Xrotation
				JOINT RightToeBase
				{
					OFFSET -0.164730 -0.452590 2.363150 
					CHANNELS 3 Zrotation Yrotation Xrotation
					End Site
					{
						OFFSET 0.000000 0.000000 0.000000 
					}
				}
			}
		}
	}
	JOINT Spine
	{
		OFFSET 0.028270 2.035590 -0.193380 
		CHANNELS 3 Zrotation Yrotation Xrotation
		JOINT Spine1
		{
			OFFSET 0.056720 2.048850 -0.042750 
			CHANNELS 3 Zrotation Yrotation Xrotation
			JOINT Neck1
			{
				OFFSET -0.054170 1.746240 0.172020 
				CHANNELS 3 Zrotation Yrotation Xrotation
				JOINT Head
				{
					OFFSET 0.104070 1.761360 -0.123970 
					CHANNELS 3 Zrotation Yrotation Xrotation
					End Site
					{
						OFFSET 0.000000 0.000000 0.000000 
					}
				}
			}
			JOINT LeftArm
			{
				OFFSET 3.362410 1.200890 -0.311210 
				CHANNELS 3 Zrotation Yrotation Xrotation
				JOINT LeftForeArm
				{
					OFFSET 4.983000 -0.000000 -0.000000 
					CHANNELS 3 Zrotation Yrotation Xrotation
					JOINT LeftHand
					{
						OFFSET 3.483560 -0.000000 -0.000000 
						CHANNELS 3 Zrotation Yrotation Xrotation
						JOINT LeftHandIndex1
						{
							OFFSET 0.715260 -0.000000 -0.000000 
							CHANNELS 3 Zrotation Yrotation Xrotation
							End Site
							{
								OFFSET 0.000000 0.000000 0.000000 
							}
						}
					}
				}
			}
			JOINT RightArm
			{
				OFFSET -3.136600 1.374050 -0.404650 
				CHANNELS 3 Zrotation Yrotation Xrotation
				JOINT RightForeArm
				{
					OFFSET -5.241900 -0.000000 -0.000000 
					CHANNELS 3 Zrotation Yrotation Xrotation
					JOINT RightHand
					{
						OFFSET -3.444170 -0.000000 -0.000000 
						CHANNELS 3 Zrotation Yrotation Xrotation
						JOINT RightHandIndex1
						{
							OFFSET -0.622530 -0.000000 -0.000000 
							CHANNELS 3 Zrotation Yrotation Xrotation
							End Site
							{
								OFFSET 0.000000 0.000000 0.000000 
							}
						}
					}
				}
			}
		}
	}
}
MOTION
Frames: 15
Frame Time: 0.041667
-2.001240 17.700308 17.037632 -173.554548 4.496135 -176.255002 -4.495861 -3.061465 -28.251884 0.990764 9.359751 25.581399 1.093809 -8.500840 1.048863 0.140900 -2.419200 -6.665600 24.064734 -5.867682 7.230075 0.083396 -6.079709 14.374560 -1.828405 9.434117 -6.783027 -0.152800 -2.518800 6.941700 2.479003 2.381524 -1.743046 3.647545 1.552945 1.307598 2.898895 -4.013352 25.050542 2.829800 -1.398200 16.376500 -89.258604 6.982524 17.554505 15.332258 -26.687346 -3.846817 -0.010632 0.334635 -1.411662 -7.125000 0.000000 0.000000 78.172356 3.788798 14.956349 -15.880339 24.998017 -4.084240 0.423852 -0.054500 -10.154271 7.125000 0.000000 0.000000 
-2.009474 17.695530 16.941062 -173.389542 4.420112 -176.145620 -4.389827 -3.231105 -28.112740 1.033198 9.445424 25.849006 1.044230 -8.146498 1.637851 0.176900 -2.709200 -7.470200 24.213236 -5.962541 7.541311 0.099414 -6.009911 14.172995 -1.795058 9.218842 -6.668493 -0.070500 -1.712500 4.711800 2.450889 2.420929 -1.765869 3.502983 1.575470 1.269808 3.025845 -4.114473 24.947217 2.911800 -1.440700 16.286300 -89.174549 7.041995 17.454277 15.314044 -26.653061 -3.837060 -0.004473 0.329890 -1.440697 -7.125000 0.000000 0.000000 78.491421 3.717853 14.572881 -15.726704 24.804076 -4.016355 0.425977 -0.070473 -9.689217 7.125000 0.000000 0.000000 
-2.020046 17.694208 16.845000 -173.346206 4.325070 -176.053504 -4.414875 -3.437918 -28.034012 1.066527 9.523152 26.086182 0.981340 -7.604970 2.100073 0.214700 -2.982800 -8.230800 24.223759 -6.000053 7.890113 0.119048 -5.926839 13.935226 -1.755457 8.937021 -6.557824 -0.042200 -1.325500 3.645000 2.400492 2.429492 -1.798545 3.315446 1.578667 1.220103 3.158869 -4.076744 25.017318 3.025500 -1.419200 16.375300 -89.118145 6.993350 17.522535 15.306614 -26.627835 -3.831214 -0.002920 0.328930 -1.760046 -7.125000 0.000000 0.000000 78.810384 3.526809 14.506659 -15.692704 24.760041 -3.999500 0.444648 -0.070509 -9.801852 7.125000 0.000000 0.000000 
-2.030618 17.687601 16.743754 -173.401423 4.412996 -176.055861 -4.531897 -3.476500 -27.917759 1.080447 9.571378 26.218715 0.934555 -7.214976 2.625994 0.120300 -2.235800 -6.157900 24.117898 -5.791017 8.408704 0.130302 -5.887089 13.818292 -1.719572 8.723092 -6.362329 -0.038300 -1.262800 3.472100 2.420728 2.434871 -1.812900 3.482290 1.573297 1.178846 3.065617 -3.828795 25.127550 3.013000 -1.339700 16.478500 -89.409110 6.995335 17.459825 15.334352 -26.667590 -3.843746 -0.002994 0.334277 -2.183383 -7.125000 0.000000 0.000000 78.758166 3.207392 14.871237 -15.736802 24.820950 -4.018016 0.455063 -0.071204 -10.178563 7.125000 0.000000 0.000000 
-2.037429 17.696648 16.645761 -173.557714 4.457215 -176.026145 -4.688106 -3.567818 -27.757516 1.079600 9.593442 26.267266 0.911151 -7.058032 3.098305 0.038700 -1.270500 -3.493300 23.934850 -5.564413 8.799489 0.130409 -5.900945 13.856822 -1.678744 8.498350 -6.066455 -0.022200 -0.961400 2.642700 2.448091 2.422342 -1.811296 3.780724 1.554187 1.160112 3.012529 -3.673377 25.068841 3.001000 -1.307600 16.441100 -89.701105 6.950109 17.293517 15.337439 -26.680974 -3.846576 -0.004835 0.338753 -2.564519 -7.125000 0.000000 0.000000 78.661209 3.131682 14.868331 -15.635481 24.688464 -3.972084 0.446861 -0.082244 -10.027158 7.125000 0.000000 0.000000 
-2.034074 17.713827 16.547666 -173.826732 4.474334 -175.872740 -4.943183 -3.591352 -27.707500 1.071119 9.599101 26.269095 0.898084 -6.963112 3.174671 0.050700 -1.453500 -3.997600 23.688888 -5.250342 8.986869 0.123174 -5.966210 14.043666 -1.615373 8.056159 -5.785481 -0.004900 -0.453900 1.247200 2.405597 2.481346 -1.839774 3.976196 1.562272 1.091526 3.259296 -3.737555 24.923985 3.177400 -1.344700 16.297400 -89.699712 6.835404 17.140114 15.177579 -26.477992 -3.780418 -0.004865 0.337305 -2.522064 -7.125000 0.000000 0.000000 78.872817 3.160630 14.370947 -15.384406 24.351794 -3.857169 0.447988 -0.082035 -9.571941 7.125000 0.000000 0.000000 
-2.049627 17.721045 16.447131 -174.119133 4.286260 -175.757455 -5.281494 -3.902844 -27.548804 1.047092 9.585994 26.211593 0.866863 -6.687274 3.196826 0.083400 -1.863200 -5.127700 23.298508 -5.233040 8.951555 0.094640 -6.096094 14.419669 -1.584973 7.904299 -5.456632 -0.003000 -0.355800 0.977700 2.354745 2.461294 -1.922197 4.028674 1.533888 0.856022 3.422141 -3.781306 24.921886 3.323400 -1.365600 16.254100 -89.770287 6.909942 17.101945 15.068570 -26.333753 -3.735635 0.002611 0.337694 -2.577277 -7.125000 0.000000 0.000000 79.087202 2.878492 13.947977 -15.170136 24.077249 -3.764271 0.449491 -0.098543 -9.484974 7.125000 0.000000 0.000000 
-2.057149 17.731413 16.340192 -174.054861 4.132216 -175.665247 -5.298091 -3.851819 -27.382496 1.027618 9.549920 26.110281 0.864600 -6.701496 3.861855 0.078000 -1.801500 -4.957300 23.345976 -5.074901 8.913826 0.048264 -6.303283 15.002321 -1.573845 7.906304 -5.211224 -0.007500 -0.558500 1.534700 2.311499 2.542845 -1.950550 3.878611 1.572256 0.832358 3.413143 -3.887205 24.940845 3.282100 -1.375600 16.281200 -89.635371 6.767098 17.250773 14.987941 -26.222685 -3.702203 0.007703 0.336480 -2.704840 -7.125000 0.000000 0.000000 79.483084 2.620657 13.248889 -14.995940 23.859177 -3.692927 0.436183 -0.124381 -9.010288 7.125000 0.000000 0.000000 
-2.065485 17.740867 16.224409 -174.145643 3.997564 -175.770202 -5.498519 -3.807496 -27.012435 1.013932 9.547840 26.084043 0.872667 -6.841988 4.525764 0.064200 -1.634600 -4.496900 23.224540 -4.994242 9.081586 -0.007849 -6.533753 15.648757 -1.555805 7.851938 -4.955708 -0.004800 -0.445600 1.224500 2.213802 2.597846 -1.887955 3.740622 1.578848 1.034609 4.934606 -6.492642 24.281525 3.191600 -5.550200 16.071000 -89.391235 6.405620 17.205377 14.884792 -26.070425 -3.658112 0.007019 0.332797 -2.399346 -7.125000 0.000000 0.000000 79.980390 2.641163 12.467756 -14.836038 23.661962 -3.627145 0.437881 -0.127580 -8.495709 7.125000 0.000000 0.000000 
-2.072702 17.747373 16.115844 -174.419333 3.824804 -175.868576 -5.852266 -3.834540 -26.680796 1.011748 9.570824 26.137981 0.879069 -7.008498 5.039526 0.044200 -1.356300 -3.729800 22.957626 -4.928090 9.223220 -0.060637 -6.750963 16.261066 -1.501954 7.467732 -4.740451 -0.001000 0.207700 -0.570600 2.178674 2.607389 -1.902808 3.850021 1.567841 0.921640 4.876122 -6.589211 24.324168 3.137200 -5.587900 16.154800 -89.491275 6.461078 16.966184 14.982725 -26.193587 -3.699606 -0.000244 0.337209 -2.155948 -7.125000 0.000000 0.000000 80.159309 2.396894 12.144762 -14.748257 23.534480 -3.586388 0.446805 -0.128851 -8.576146 7.125000 0.000000 0.000000 
-2.079920 17.743815 16.012768 -174.551459 3.530013 -175.918643 -6.074686 -3.798238 -26.432386 1.016421 9.590736 26.201440 0.900061 -7.339248 5.773955 0.003200 -0.366200 -1.006300 22.834227 -4.978054 9.207397 -0.129316 -7.006005 16.989732 -1.459690 7.189468 -4.531988 -0.013900 0.760300 -2.089500 2.181865 2.505060 -1.968854 3.992918 1.502941 0.642131 4.895118 -6.609309 24.344714 3.171000 -5.639000 16.122300 -89.669824 6.699951 16.699720 15.048044 -26.269822 -3.722957 -0.003245 0.335871 -2.035899 -7.125000 0.000000 0.000000 80.242218 1.893037 12.181268 -14.740767 23.530370 -3.582515 0.448908 -0.126084 -8.766864 7.125000 0.000000 0.000000 
-2.093948 17.744018 15.901662 -174.738244 3.309857 -175.883790 -6.362354 -3.872358 -26.174645 1.022592 9.618708 26.284055 0.908510 -7.538073 6.186377 0.007800 0.569400 1.564600 22.545810 -4.978069 9.055893 -0.216422 -7.305593 17.853350 -1.449931 7.246649 -4.075236 -0.013400 0.747800 -2.055000 2.125394 2.409251 -1.960566 3.897453 1.450353 0.734876 4.900591 -6.599231 24.268883 3.170400 -5.617500 16.020400 -89.674582 6.593793 16.456281 14.986624 -26.186110 -3.696099 -0.004390 0.332240 -1.835739 -7.125000 0.000000 0.000000 80.521491 1.696681 12.143543 -14.722051 23.511976 -3.572211 0.456518 -0.104412 -8.644311 7.125000 0.000000 0.000000 
-2.109297 17.764756 15.788115 -174.690800 3.227801 -175.788721 -6.374373 -4.023311 -25.885215 1.034731 9.646549 26.363163 0.906310 -7.543537 6.018395 0.003700 0.390600 1.073200 22.496313 -4.862606 8.778103 -0.312300 -7.627010 18.788109 -1.422998 7.239785 -3.343461 -0.019400 0.898200 -2.468800 2.085410 2.415035 -1.957566 3.724841 1.454012 0.855625 4.815755 -6.604486 24.256973 3.080000 -5.583200 16.007200 -89.652434 6.496859 16.347405 14.993834 -26.194418 -3.700351 -0.012828 0.335159 -1.830397 -7.125000 0.000000 0.000000 80.829184 1.600163 11.894046 -14.590999 23.340150 -3.514311 0.459646 -0.093302 -8.270889 7.125000 0.000000 0.000000 
-2.119869 17.780715 15.674671 -174.625468 3.106630 -175.786814 -6.388471 -4.031751 -25.560239 1.043818 9.664999 26.412925 0.922476 -7.787619 5.716103 0.000000 0.037100 0.102000 22.456381 -4.959091 8.453996 -0.432303 -7.990515 19.858443 -1.399364 7.283761 -2.474437 -0.039700 1.285800 -3.535600 2.053246 2.471962 -1.974719 3.621174 1.478501 0.835149 4.864863 -6.684555 24.322736 3.090500 -5.606300 16.100000 -89.558913 6.520861 16.545450 15.076153 -26.289207 -3.729138 -0.014781 0.330975 -2.028079 -7.125000 0.000000 0.000000 81.058277 1.397886 11.475071 -14.413482 23.111528 -3.441096 0.451214 -0.106143 -8.295805 7.125000 0.000000 0.000000 
-2.128205 17.791287 15.559600 -174.682550 2.987009 -175.890949 -6.592845 -3.754885 -25.210586 1.038678 9.662345 26.391271 0.962020 -8.371592 5.541786 0.000000 -0.016900 -0.046600 22.285802 -5.112055 8.159937 -0.585795 -8.420571 21.129609 -1.381043 7.331186 -1.705779 -0.067700 1.679200 -4.620000 2.020993 2.492263 -1.963636 3.635634 1.480294 0.826798 5.127412 -6.764150 24.408080 3.298600 -5.668100 16.259700 -89.489360 6.520851 16.773970 15.156437 -26.376913 -3.754807 -0.008292 0.322851 -2.242835 -7.125000 0.000000 0.000000 81.173394 1.169676 11.287581 -14.302703 22.973626 -3.396531 0.453248 -0.117867 -8.521662 7.125000 0.000000 0.000000 
